<svg width="18" height="18" viewBox="0 0 18 18" fill="none" xmlns="http://www.w3.org/2000/svg">
<path fill-rule="evenodd" clip-rule="evenodd" d="M17.3334 9.00001C17.3334 13.6024 13.6025 17.3333 9.00008 17.3333C4.39771 17.3333 0.666748 13.6024 0.666748 9.00001C0.666748 4.39764 4.39771 0.666679 9.00008 0.666679C13.6025 0.666679 17.3334 4.39764 17.3334 9.00001ZM12.0893 7.08927C12.4148 6.76383 12.4148 6.23619 12.0893 5.91076C11.7639 5.58532 11.2363 5.58532 10.9108 5.91076L9.00008 7.8215L7.08934 5.91076C6.7639 5.58532 6.23626 5.58532 5.91083 5.91076C5.58539 6.23619 5.58539 6.76383 5.91083 7.08927L7.82157 9.00001L5.91083 10.9108C5.58539 11.2362 5.58539 11.7638 5.91083 12.0893C6.23626 12.4147 6.7639 12.4147 7.08934 12.0893L9.00008 10.1785L10.9108 12.0893C11.2363 12.4147 11.7639 12.4147 12.0893 12.0893C12.4148 11.7638 12.4148 11.2362 12.0893 10.9108L10.1786 9.00001L12.0893 7.08927Z" fill="#CBCBCB"/>
</svg>
