<svg width="20" height="20" viewBox="0 0 20 20" fill="none" xmlns="http://www.w3.org/2000/svg">
<path d="M3.33331 11.6667C3.33331 10.2083 3.68054 8.90972 4.37498 7.77083C5.06942 6.63194 5.83331 5.67361 6.66665 4.89583C7.49998 4.11806 8.26387 3.52417 8.95831 3.11417L9.99998 2.5V5.25C9.99998 5.76389 10.1736 6.17 10.5208 6.46833C10.868 6.76667 11.2569 6.91611 11.6875 6.91667C11.9236 6.91667 12.1494 6.86806 12.365 6.77083C12.5805 6.67361 12.7783 6.51389 12.9583 6.29167L13.3333 5.83333C14.3333 6.41667 15.1389 7.22555 15.75 8.26C16.3611 9.29444 16.6666 10.43 16.6666 11.6667C16.6666 12.8889 16.368 14.0036 15.7708 15.0108C15.1736 16.0181 14.3889 16.8128 13.4166 17.395C13.6528 17.0617 13.8369 16.6969 13.9691 16.3008C14.1014 15.9047 14.1672 15.485 14.1666 15.0417C14.1666 14.4861 14.0625 13.9617 13.8541 13.4683C13.6458 12.975 13.3472 12.5342 12.9583 12.1458L9.99998 9.25L7.06248 12.1458C6.6597 12.5486 6.35415 12.9931 6.14581 13.4792C5.93748 13.9653 5.83331 14.4861 5.83331 15.0417C5.83331 15.4861 5.89942 15.9064 6.03165 16.3025C6.16387 16.6986 6.34776 17.0631 6.58331 17.3958C5.61109 16.8125 4.82637 16.0172 4.22915 15.01C3.63192 14.0028 3.33331 12.8883 3.33331 11.6667ZM9.99998 11.5833L11.7708 13.3125C12.0069 13.5486 12.1875 13.8125 12.3125 14.1042C12.4375 14.3958 12.5 14.7083 12.5 15.0417C12.5 15.7222 12.2569 16.3019 11.7708 16.7808C11.2847 17.2597 10.6944 17.4994 9.99998 17.5C9.30554 17.5 8.71526 17.2603 8.22915 16.7808C7.74304 16.3014 7.49998 15.7217 7.49998 15.0417C7.49998 14.7222 7.56248 14.4131 7.68748 14.1142C7.81248 13.8153 7.99304 13.5481 8.22915 13.3125L9.99998 11.5833Z" fill="#FF8743"/>
</svg>
